<svg xmlns="http://www.w3.org/2000/svg" width="1287.97" height="267.58" viewBox="0 0 1287.97 267.58"><defs><style>.a{fill:#fff;}</style></defs><path class="a" d="M390,75.32a47.43,47.43,0,0,1,26.34,7.74,48.91,48.91,0,0,1,17.94,20.34H408.09a27.59,27.59,0,0,0-45.72,20.88,27.66,27.66,0,0,0,27.6,27.6A26.08,26.08,0,0,0,408.09,145h26.16a48.91,48.91,0,0,1-17.94,20.34,48.88,48.88,0,0,1-75.3-41.1,49,49,0,0,1,49-49Z"/><path class="a" d="M442.89,134.84a38.31,38.31,0,0,1,38.28-38.28v21.36a17,17,0,0,0-17,16.92v38.28L442.89,183.8Z"/><path class="a" d="M537.21,178.16a38.21,38.21,0,0,1-35.4,25.08V182a17.21,17.21,0,0,0,9.36-3.24,16.45,16.45,0,0,0,6-7.92l1.92-5L488,96.56h23.28l18.24,40.56,14.76-40.56H567Z"/><path class="a" d="M576.63,107.78A38.28,38.28,0,0,1,642,134.84a38.31,38.31,0,0,1-38.28,38.28,38.56,38.56,0,0,1-17-4v23.52l-21.24,10.68V134.84A36.88,36.88,0,0,1,576.63,107.78Zm39.12,15.12a16.95,16.95,0,1,0,5,11.94A16.43,16.43,0,0,0,615.75,122.9Z"/><path class="a" d="M654.09,145.52V108.44h-7.56V96.56h7.56v-21l21.36,10.68V96.56H683v11.88h-7.56v37.08a6.35,6.35,0,0,0,6.36,6.36h1.92v21.24h-1.92a26.78,26.78,0,0,1-19.56-8.1A26.48,26.48,0,0,1,654.09,145.52Z"/><path class="a" d="M701,107.78a38.28,38.28,0,0,1,65.34,27.06A38.28,38.28,0,1,1,701,107.78Zm39.12,15a16.95,16.95,0,1,0,5,12.06A16.43,16.43,0,0,0,740.07,122.78Z"/><path class="a" d="M822.8,75.32h30.37a49,49,0,0,1,49,49q0,20-14.45,34.44t-34.5,14.4H822.8Zm21.37,21.24v55.32h9a26.77,26.77,0,0,0,19.5-8.16,27.33,27.33,0,0,0,.06-39,26.71,26.71,0,0,0-19.56-8.16Z"/><path class="a" d="M918.21,107.84a38,38,0,0,1,64.8,27,36.45,36.45,0,0,1-.36,5.16H928.89a16.66,16.66,0,0,0,6.12,8.58A16.94,16.94,0,0,0,952.89,150H980a37.64,37.64,0,0,1-13.92,16.8,38,38,0,0,1-59-31.92A36.78,36.78,0,0,1,918.21,107.84ZM930,127.28h30.12a17.45,17.45,0,0,0-6.18-6.78,16.57,16.57,0,0,0-17.76,0A17.3,17.3,0,0,0,930,127.28Z"/><path class="a" d="M1028.13,96.68a37.53,37.53,0,0,1,22,6.84A37,37,0,0,1,1064,121.4h-25.44a17.08,17.08,0,0,0-10.44-3.48,16.8,16.8,0,0,0-16.92,16.92,16.49,16.49,0,0,0,4.92,12.06,16.21,16.21,0,0,0,12,5,16.74,16.74,0,0,0,11.76-4.68h24.48a37.85,37.85,0,0,1-13.86,18.72A38.17,38.17,0,0,1,990,134.84a38.1,38.1,0,0,1,38.16-38.16Z"/><path class="a" d="M1094.13,96.56v76.56h-21.24V107.24Zm-17.34-18.42a9.24,9.24,0,0,1,6.78-2.82,9.06,9.06,0,0,1,6.72,2.82,9.71,9.71,0,0,1,0,13.56,9.06,9.06,0,0,1-6.72,2.82,9.59,9.59,0,0,1-6.78-16.38Z"/><path class="a" d="M1149.93,96.56h21.24V139a34,34,0,0,1-68,0V96.56h21.36V139a12.72,12.72,0,0,0,25.44,0Z"/><path class="a" d="M1204.65,173.12a22.55,22.55,0,0,1-17.52-7.56,26.39,26.39,0,0,1-6.84-18.36h21.6a2.39,2.39,0,0,0-.36,1.44,3.08,3.08,0,0,0,.9,2.16,2.91,2.91,0,0,0,2.22,1,3.24,3.24,0,0,0,2.28-.9,2.92,2.92,0,0,0,1-2.22,3.12,3.12,0,0,0-2.28-3.12l-9.6-3.84a23.15,23.15,0,0,1-10.68-8.52,22.55,22.55,0,0,1-4.08-13.2,22.3,22.3,0,0,1,7-16.62,23.19,23.19,0,0,1,16.8-6.78,22,22,0,0,1,16,6.6,22.73,22.73,0,0,1,7.08,15.84h-21.48a2,2,0,0,0-1.92-1.2,1.85,1.85,0,0,0-1.44.66,2.12,2.12,0,0,0-.6,1.5,1.79,1.79,0,0,0,1.08,1.8l10.44,4.32a24.82,24.82,0,0,1,15.12,22.68,23.31,23.31,0,0,1-7.2,17.28A23.93,23.93,0,0,1,1204.65,173.12Z"/><path class="a" d="M124.25,205.57a2.52,2.52,0,0,1-2.61,2.51,74.34,74.34,0,0,1,0-148.58A2.52,2.52,0,0,1,124.24,62V88.49A2.52,2.52,0,0,1,121.85,91a43,43,0,0,0-39.64,34.32,43.44,43.44,0,0,0-.84,8.47,42.88,42.88,0,0,0,40.48,42.8,2.51,2.51,0,0,1,2.39,2.5Z"/><path class="a" d="M280.64,134.06a75.77,75.77,0,0,1-.79,10.89,74.38,74.38,0,0,1-64.47,62.89l-.36,0h-66a1.25,1.25,0,0,1-.89-2.14L160.6,193.3l15.79-15.79a3.81,3.81,0,0,1,2.67-1.1H212.9a43,43,0,0,0,35.36-33.52,43.67,43.67,0,0,0,.91-8.83,42.7,42.7,0,0,0-17-34.18,42.4,42.4,0,0,0-17.27-7.83,44.58,44.58,0,0,0-6.55-.81H148.54A2.51,2.51,0,0,1,146,88.73V62.22a2.51,2.51,0,0,1,2.52-2.51l63.42.23a74.32,74.32,0,0,1,68.67,74.12Z"/><rect class="a" x="107.87" y="119.76" width="114.8" height="28.13" rx="14.06"/></svg>